<?xml version="1.0" standalone="no"?>
<!DOCTYPE svg PUBLIC "-//W3C//DTD SVG 20010904//EN"
 "http://www.w3.org/TR/2001/REC-SVG-20010904/DTD/svg10.dtd">
<svg version="1.0" xmlns="http://www.w3.org/2000/svg"
 width="260.000000pt" height="260.000000pt" viewBox="0 0 260.000000 260.000000"
 preserveAspectRatio="xMidYMid meet">
<metadata>
Created by potrace 1.11, written by Peter Selinger 2001-2013
</metadata>
<g transform="translate(0.000000,260.000000) scale(0.100000,-0.100000)"
fill="#000000" stroke="none">
<path d="M1095 2080 c-11 -4 -22 -17 -25 -30 -4 -18 -20 -30 -64 -47 -69 -26
-86 -39 -86 -65 0 -13 -4 -17 -12 -12 -9 6 -9 3 1 -9 7 -9 10 -24 7 -33 -4 -9
-1 -23 6 -32 11 -13 10 -14 -9 -4 -12 7 -23 17 -25 24 -3 7 -7 5 -11 -6 -4 -9
-3 -15 2 -12 10 6 28 -13 26 -29 0 -5 -4 -16 -8 -22 -5 -8 -4 -13 2 -13 10 0
15 14 12 33 0 4 4 7 10 7 14 0 1 -42 -17 -56 -21 -17 -17 -26 6 -12 16 10 22
10 32 0 11 -11 10 -12 -3 -7 -9 3 -22 -2 -30 -12 -12 -16 -12 -17 1 -6 13 10
18 6 33 -20 l17 -32 -20 24 c-22 26 -26 21 -9 -11 10 -18 9 -20 -5 -15 -9 4
-16 1 -16 -4 0 -7 11 -9 25 -7 14 3 28 1 32 -5 3 -5 2 -8 -3 -4 -5 3 -18 -1
-29 -9 -10 -8 -13 -14 -6 -14 7 0 9 -5 6 -10 -4 -6 -3 -10 2 -9 22 4 25 -3 7
-17 -16 -13 -16 -15 -2 -10 22 7 35 -13 17 -25 -10 -6 -7 -8 8 -6 20 1 21 3 9
22 -14 21 -11 45 6 45 7 0 7 -5 -1 -13 -8 -10 -6 -19 10 -36 11 -12 24 -19 30
-16 5 4 9 1 9 -5 0 -7 -7 -9 -16 -6 -27 10 -37 -4 -18 -26 16 -17 16 -21 4
-30 -12 -8 -12 -9 3 -4 11 3 20 0 23 -9 4 -8 11 -15 16 -15 6 0 4 8 -3 18 -7
9 -9 14 -5 10 5 -4 15 -3 23 3 9 9 13 8 13 0 0 -6 -5 -11 -11 -11 -5 0 -8 -4
-4 -9 3 -6 -3 -15 -12 -21 -13 -8 -14 -10 -3 -9 31 3 50 -1 50 -11 0 -5 -6 -7
-14 -4 -8 3 -17 1 -21 -5 -4 -7 0 -8 11 -4 12 4 15 3 10 -6 -5 -7 -2 -10 6 -9
7 2 12 -5 12 -14 -1 -10 4 -14 13 -11 12 5 12 8 -1 22 -11 12 -12 21 -5 31 9
13 10 12 6 -2 -3 -9 1 -22 9 -28 8 -7 14 -18 14 -26 0 -7 5 -16 11 -20 8 -4 9
1 5 17 -3 13 3 5 14 -18 l19 -43 -59 -60 c-33 -32 -60 -62 -60 -65 0 -3 -11
-22 -23 -43 -13 -20 -22 -43 -20 -49 3 -7 -4 -13 -14 -14 -10 0 -13 -3 -5 -6
6 -2 9 -10 5 -16 -4 -7 -9 -23 -11 -37 -1 -14 -5 -32 -9 -40 -3 -8 -5 -23 -4
-34 2 -10 -2 -15 -7 -12 -6 4 -8 -2 -5 -15 4 -12 0 -25 -8 -30 -12 -7 -12 -9
1 -9 13 0 13 -1 0 -10 -10 -6 -11 -10 -2 -10 6 0 12 -5 12 -11 0 -6 -7 -9 -14
-6 -10 4 -13 1 -9 -9 3 -7 8 -14 12 -14 4 0 7 -9 8 -20 1 -11 -3 -20 -8 -20
-6 0 -8 4 -5 9 3 5 -2 15 -11 22 -15 12 -16 12 -7 -1 5 -8 9 -26 10 -40 2 -45
4 -50 16 -50 9 0 9 3 0 12 -16 16 -15 25 4 32 14 5 15 4 4 -9 -11 -13 -7 -19
12 -16 3 0 5 -7 3 -17 -1 -10 -10 -16 -21 -14 -12 2 -15 0 -8 -5 6 -4 10 -16
8 -25 -1 -11 4 -18 13 -18 13 0 13 2 2 17 -8 9 -9 14 -2 10 6 -4 14 -1 17 5 3
7 3 1 1 -14 -3 -23 3 -33 35 -55 22 -16 40 -32 40 -36 0 -5 -4 -6 -8 -3 -5 3
-9 -1 -9 -7 0 -7 9 -14 19 -14 15 -2 18 3 14 20 -3 12 -3 16 0 10 9 -20 24
-15 18 5 -5 14 -4 15 5 2 6 -8 11 -10 11 -5 0 6 6 3 13 -5 14 -19 43 -19 39
-1 -1 7 2 10 8 6 8 -5 7 -11 -1 -21 -14 -17 -5 -18 23 -3 15 8 19 8 14 0 -4
-6 -2 -11 5 -11 8 0 8 -4 1 -13 -8 -10 2 -12 50 -11 51 0 64 4 79 23 21 26 25
21 8 -12 -7 -12 -8 -19 -4 -15 4 4 17 3 29 -3 20 -9 20 -9 3 4 -12 10 -14 17
-7 22 5 3 7 12 4 18 -4 7 -4 9 1 5 4 -4 14 0 22 10 12 16 13 16 6 -2 -5 -15
-3 -17 8 -11 8 5 11 5 6 -1 -5 -5 -13 -9 -18 -9 -15 0 -10 -19 6 -21 9 -1 12
2 8 9 -4 6 0 8 9 4 17 -6 18 8 3 33 -7 12 -6 13 6 3 12 -10 18 -10 27 -1 7 7
12 8 12 3 0 -6 5 -3 11 5 9 13 10 13 6 0 -2 -8 -10 -14 -16 -12 -7 1 -9 -2 -5
-9 4 -8 3 -9 -4 -5 -7 4 -12 3 -12 -2 0 -6 7 -13 16 -16 8 -3 12 -2 9 3 -3 5
5 17 17 25 21 15 23 15 30 -1 5 -11 6 -6 2 12 l-5 29 21 -19 c12 -11 21 -15
20 -10 -2 6 -1 12 0 15 7 19 7 39 -1 34 -5 -3 -7 -9 -4 -14 3 -5 1 -11 -5 -15
-5 -3 -10 3 -10 13 0 29 26 34 44 9 l17 -22 -11 22 c-14 29 -13 36 8 59 21 24
24 38 25 144 0 90 -2 112 -27 203 -28 107 -68 162 -193 272 -39 34 -46 51 -33
85 2 3 2 8 1 12 0 4 6 5 14 2 10 -4 15 0 16 12 0 11 3 14 6 7 2 -7 9 -13 14
-13 4 0 6 6 3 14 -3 8 0 17 7 22 7 4 10 3 6 -2 -3 -6 -2 -16 2 -23 6 -9 9 -4
9 14 0 39 19 54 32 24 9 -22 10 -21 4 8 -5 29 -3 31 18 26 21 -5 22 -5 5 9
-18 13 -18 14 2 32 12 11 25 15 33 10 10 -6 10 -4 -1 9 -9 11 -10 17 -2 18 6
1 16 2 23 3 6 0 12 9 14 19 1 9 -2 15 -7 11 -5 -3 -6 -10 -3 -16 4 -7 2 -8 -4
-4 -9 5 -7 14 4 32 16 23 32 35 18 12 -5 -7 -3 -8 5 -4 7 5 10 14 8 20 -6 16
2 29 28 45 14 9 15 11 3 7 -12 -3 -15 -1 -11 10 3 7 10 14 16 14 6 0 7 3 4 6
-3 4 -2 15 4 26 6 11 13 29 15 41 9 38 12 52 14 52 1 0 3 6 14 70 3 17 2 36
-2 43 -8 12 -202 64 -292 77 -82 12 -94 14 -175 21 -44 3 -87 8 -95 9 -8 1
-24 -1 -35 -5z m-125 -434 c0 -11 -19 -15 -25 -6 -3 5 1 10 9 10 9 0 16 -2 16
-4z m55 -108 c5 4 5 1 1 -6 -6 -10 -11 -10 -22 -1 -8 6 -14 14 -14 16 0 3 6 0
13 -6 8 -6 18 -7 22 -3z m25 -17 c0 -5 -7 -12 -16 -15 -14 -5 -15 -4 -4 9 14
17 20 19 20 6z m142 -143 c-22 -22 -13 -31 14 -13 l25 16 -16 -25 c-21 -32
-32 -33 -40 -5 -5 14 -2 25 6 30 20 12 25 11 11 -3z m-166 -714 c1 -9 0 -13
-4 -10 -3 4 -7 14 -8 22 -1 9 0 13 4 10 3 -4 7 -14 8 -22z m261 -69 c0 -8 -4
-12 -9 -9 -5 3 -6 10 -3 15 9 13 12 11 12 -6z m58 -5 c3 -6 -1 -7 -9 -4 -18 7
-21 14 -7 14 6 0 13 -4 16 -10z m-82 -23 c7 3 8 2 4 -2 -14 -16 -36 -14 -29 3
4 10 7 12 10 4 2 -7 9 -9 15 -5z m69 -9 c-5 -5 -17 -6 -26 -2 -13 5 -14 9 -5
14 16 11 43 0 31 -12z"/>
<path d="M1521 1546 c-10 -11 -9 -14 1 -12 14 2 23 15 15 22 -2 2 -10 -2 -16
-10z"/>
<path d="M1394 1405 c-10 -8 -14 -15 -7 -15 6 0 15 5 18 11 4 6 14 8 22 5 8
-3 11 -1 8 4 -8 14 -18 13 -41 -5z"/>
<path d="M978 653 c10 -4 10 -8 0 -21 -11 -15 -11 -15 3 -5 16 13 29 8 29 -9
0 -5 -4 -7 -8 -4 -5 3 -9 -1 -9 -9 0 -13 4 -12 19 2 11 9 18 11 18 5 0 -7 6
-12 13 -12 6 0 -4 14 -23 30 -19 16 -39 29 -45 29 -5 0 -4 -3 3 -6z"/>
<path d="M1111 586 c-7 -8 -11 -21 -8 -28 4 -8 6 -7 6 5 1 9 6 17 12 17 5 0 8
-4 5 -8 -2 -4 -1 -14 5 -22 5 -10 9 -10 9 -3 0 7 9 10 21 8 17 -3 19 -2 9 10
-7 8 -16 12 -21 10 -4 -3 -12 2 -17 10 -8 15 -10 15 -21 1z"/>
<path d="M1190 559 c0 -5 5 -7 10 -4 6 3 10 8 10 11 0 2 -4 4 -10 4 -5 0 -10
-5 -10 -11z"/>
</g>
</svg>
